<svg xmlns="http://www.w3.org/2000/svg" viewBox="0 0 330 110" width="660" height="220">
  <defs>

    <filter id="wGlow" x="-80%" y="-80%" width="260%" height="260%">
      <feGaussianBlur in="SourceGraphic" stdDeviation="4.5" result="blur"/>
      <feMerge>
        <feMergeNode in="blur"/>
        <feMergeNode in="blur"/>
        <feMergeNode in="SourceGraphic"/>
      </feMerge>
    </filter>

    <filter id="sparkGlow" x="-200%" y="-200%" width="500%" height="500%">
      <feGaussianBlur in="SourceGraphic" stdDeviation="1.6" result="blur"/>
      <feMerge>
        <feMergeNode in="blur"/>
        <feMergeNode in="SourceGraphic"/>
      </feMerge>
    </filter>

    <filter id="borderGlow" x="-15%" y="-15%" width="130%" height="130%">
      <feGaussianBlur in="SourceGraphic" stdDeviation="2" result="blur"/>
      <feMerge>
        <feMergeNode in="blur"/>
        <feMergeNode in="SourceGraphic"/>
      </feMerge>
    </filter>

    <filter id="textGlow" x="-10%" y="-40%" width="120%" height="180%">
      <feGaussianBlur in="SourceGraphic" stdDeviation="2" result="blur"/>
      <feMerge>
        <feMergeNode in="blur"/>
        <feMergeNode in="SourceGraphic"/>
      </feMerge>
    </filter>

    <linearGradient id="shieldBorder" x1="0%" y1="0%" x2="100%" y2="120%">
      <stop offset="0%"   stop-color="#38bdf8"/>
      <stop offset="60%"  stop-color="#0ea5e9"/>
      <stop offset="100%" stop-color="#0369a1"/>
    </linearGradient>

    <linearGradient id="wGrad" x1="10%" y1="0%" x2="80%" y2="100%">
      <stop offset="0%"   stop-color="#ffffff"/>
      <stop offset="35%"  stop-color="#7dd3fc"/>
      <stop offset="100%" stop-color="#0284c7"/>
    </linearGradient>

    <linearGradient id="textGrad" x1="0%" y1="0%" x2="0%" y2="100%">
      <stop offset="0%"   stop-color="#ffffff"/>
      <stop offset="100%" stop-color="#7dd3fc"/>
    </linearGradient>

    <radialGradient id="innerGlow" cx="50%" cy="42%" r="44%">
      <stop offset="0%"   stop-color="#0ea5e9" stop-opacity="0.2"/>
      <stop offset="100%" stop-color="#0ea5e9" stop-opacity="0"/>
    </radialGradient>

    <path id="shield" d="M50,103 L7,73 L5,20 Q5,5 20,5 L80,5 Q95,5 95,20 L93,73 Z"/>

  </defs>

  <!-- ── Escudo ──────────────────────────────────────────────────── -->
  <use href="#shield" fill="#0b1220"/>
  <use href="#shield" fill="url(#innerGlow)"/>
  <use href="#shield" fill="none" stroke="url(#shieldBorder)" stroke-width="2.4" filter="url(#borderGlow)"/>

  <!-- W gruesa -->
  <path d="M20,26 L34,71 L50,46 L66,71 L80,26"
        stroke="url(#wGrad)"
        stroke-width="10.5"
        stroke-linecap="round"
        stroke-linejoin="round"
        fill="none"
        filter="url(#wGlow)"/>
  <path d="M20,26 L34,71 L50,46 L66,71 L80,26"
        stroke="#ffffff"
        stroke-width="3"
        stroke-linecap="round"
        stroke-linejoin="round"
        fill="none"
        opacity="0.8"/>

  <!-- Punto caliente central -->
  <circle cx="50" cy="46" r="4" fill="#00d4ff" filter="url(#sparkGlow)" opacity="0.95"/>
  <circle cx="50" cy="46" r="1.6" fill="#ffffff"/>

  <!-- Chispas valle izquierdo (34,71) -->
  <line x1="34" y1="71" x2="22" y2="82" stroke="#38bdf8" stroke-width="1.4" stroke-linecap="round" filter="url(#sparkGlow)" opacity="0.95"/>
  <line x1="34" y1="71" x2="32" y2="85" stroke="#7dd3fc" stroke-width="1.3" stroke-linecap="round" filter="url(#sparkGlow)" opacity="0.85"/>
  <line x1="34" y1="71" x2="43" y2="83" stroke="#38bdf8" stroke-width="1.4" stroke-linecap="round" filter="url(#sparkGlow)" opacity="0.9"/>
  <line x1="34" y1="71" x2="25" y2="78" stroke="#ffffff"  stroke-width="1.0" stroke-linecap="round" opacity="0.65"/>
  <line x1="34" y1="71" x2="28" y2="80" stroke="#38bdf8" stroke-width="0.9" stroke-linecap="round" opacity="0.7"/>
  <line x1="34" y1="71" x2="40" y2="79" stroke="#7dd3fc" stroke-width="0.9" stroke-linecap="round" opacity="0.65"/>
  <line x1="34" y1="71" x2="28" y2="74" stroke="#ffffff"  stroke-width="0.7" stroke-linecap="round" opacity="0.5"/>
  <line x1="34" y1="71" x2="19" y2="78" stroke="#0ea5e9" stroke-width="0.7" stroke-linecap="round" opacity="0.5"/>
  <circle cx="22" cy="83" r="0.9" fill="#38bdf8" filter="url(#sparkGlow)" opacity="0.8"/>
  <circle cx="32" cy="87" r="0.7" fill="#ffffff"  opacity="0.65"/>
  <circle cx="44" cy="84" r="0.8" fill="#7dd3fc" opacity="0.7"/>

  <!-- Chispas valle derecho (66,71) -->
  <line x1="66" y1="71" x2="78" y2="82" stroke="#38bdf8" stroke-width="1.4" stroke-linecap="round" filter="url(#sparkGlow)" opacity="0.95"/>
  <line x1="66" y1="71" x2="68" y2="85" stroke="#7dd3fc" stroke-width="1.3" stroke-linecap="round" filter="url(#sparkGlow)" opacity="0.85"/>
  <line x1="66" y1="71" x2="57" y2="83" stroke="#38bdf8" stroke-width="1.4" stroke-linecap="round" filter="url(#sparkGlow)" opacity="0.9"/>
  <line x1="66" y1="71" x2="75" y2="78" stroke="#ffffff"  stroke-width="1.0" stroke-linecap="round" opacity="0.65"/>
  <line x1="66" y1="71" x2="72" y2="80" stroke="#38bdf8" stroke-width="0.9" stroke-linecap="round" opacity="0.7"/>
  <line x1="66" y1="71" x2="60" y2="79" stroke="#7dd3fc" stroke-width="0.9" stroke-linecap="round" opacity="0.65"/>
  <line x1="66" y1="71" x2="72" y2="74" stroke="#ffffff"  stroke-width="0.7" stroke-linecap="round" opacity="0.5"/>
  <line x1="66" y1="71" x2="81" y2="78" stroke="#0ea5e9" stroke-width="0.7" stroke-linecap="round" opacity="0.5"/>
  <circle cx="78" cy="83" r="0.9" fill="#38bdf8" filter="url(#sparkGlow)" opacity="0.8"/>
  <circle cx="68" cy="87" r="0.7" fill="#ffffff"  opacity="0.65"/>
  <circle cx="56" cy="84" r="0.8" fill="#7dd3fc" opacity="0.7"/>

  <!-- ── WELDIX (sin separador, pegado al escudo) ───────────────── -->
  <text
    x="106" y="67"
    font-family="'Arial Black', 'Impact', Arial, sans-serif"
    font-size="44"
    font-weight="900"
    letter-spacing="5"
    fill="url(#textGrad)"
    filter="url(#textGlow)"
  >WELDIX</text>

  <!-- Línea decorativa bajo WELDIX -->
  <line x1="106" y1="73" x2="320" y2="73" stroke="url(#shieldBorder)" stroke-width="0.8" opacity="0.4"/>

  <!-- ── INDUSTRIAL MANAGEMENT ──────────────────────────────────── -->
  <text
    x="107" y="87"
    font-family="Arial, sans-serif"
    font-size="9.5"
    font-weight="400"
    letter-spacing="4"
    fill="#38bdf8"
    opacity="0.72"
  >INDUSTRIAL MANAGEMENT</text>

</svg>
